#!OML:ASF F:\VICON\USERDATA\INSTALL\rory3\rory3.ASF
:FULLY-SPECIFIED
:DEGREES
45
root -0.06927364314005874 18.16197322876394 5.796337720878265 -3.4141767036884154 -2.0618305970279582 -6.244215720034864
lfemur -24.47423853054457 4.792891430910812 -13.692987544364746
ltibia 62.14962989313241
lfoot -6.708531638347454 -3.338320826079503
ltoes -7.435382537002706
rfemur -3.3839373073219576 5.801172301202593 32.849412252009145
rtibia 28.507279775333345
rfoot -17.502067989303292 -4.692015146009018
rtoes 6.440767415018651
lowerback 9.956968616277772 1.350214723184905 5.228670970378967
upperback 0.36819471577854956 2.5716576053106746 2.198924043370636
thorax -5.081608539874819 1.166910181966964 -0.9084303672262654
lowerneck -16.650387825750215 -2.81877321045815 -1.7265016381917844
upperneck 20.817565632925035 -3.5888440122688134 0.7081676940403241
head 9.360969349134335 -1.7356329798598966 0.07982255115944845
lclavicle -1.953240616852849e-15 9.06769233910383e-16
lhumerus -33.096213266438404 -0.11815479551587049 85.0667336389092
lradius 26.332694380618907
lwrist 5.452583391482685
lhand -27.197483594087817 23.585579342684927
lfingers 7.12502
lthumb -0.6569892007683571 53.58375193240053
rclavicle -1.9532406170910447e-15 9.067692336918222e-16
rhumerus -25.876602266557025 -12.116897341114448 -81.12173029255545
rradius 26.371213817543953
rwrist 4.12129615270659
rhand -17.869629438294144 22.577245967357022
rfingers 7.12502
rthumb 8.420109641531992 -7.053115286782052
46
root -0.05680554109505781 18.078210385514428 6.508693031666333 -2.843666772235709 -2.8147406489870956 -6.991314672260474
lfemur -26.820682928724853 3.871441526253491 -13.05555833867729
ltibia 54.265170407220324
lfoot -7.438513721033534 0.2577841354982451
ltoes -8.230947849658406
rfemur -0.6887839675087442 5.903765146997655 33.76336523642213
rtibia 28.156764026078378
rfoot -18.18816180206364 -4.917400527472104
rtoes 6.079311876963329
lowerback 10.12164834825973 1.7455939367340703 6.4127431202627605
upperback 0.29614344563029826 3.225652818941796 2.263131468069356
thorax -5.124780629042221 1.4801902846446269 -1.441614668016605
lowerneck -16.74369458885369 -2.829614783022686 -1.6256247069177099
upperneck 20.61387088691838 -3.646570152358461 0.8127869572297025
head 9.298795694301313 -1.7418788773077372 0.09169488093746533
lclavicle -1.9532406168671175e-15 9.067692338971487e-16
lhumerus -34.04247507121056 1.0256358158218548 84.74323833978865
lradius 25.480846060165547
lwrist 4.821749368598426
lhand -27.355781069308282 23.46436171077165
lfingers 7.12502
lthumb -0.8105221603255751 53.35668999124234
rclavicle -1.9532406170943248e-15 9.067692336885312e-16
rhumerus -25.115783091202214 -11.124233037784368 -81.40093559197109
rradius 27.552281356349738
rwrist 2.759010663677956
rhand -18.0439572703357 22.761562147284344
rfingers 7.12502
rthumb 8.261762966910299 -6.878170636949315
47
root -0.04246622921743337 18.04937039911469 6.987690180162351 -2.1383121222624784 -3.4464573706110713 -7.931249171793532
lfemur -28.146587175299338 1.9612610874145306 -11.776538816470428
ltibia 43.76211175602255
lfoot -5.65817850270703 1.9721211291480787
ltoes -8.703268685088869
rfemur 2.354471248900518 6.119809427842337 34.79449131244886
rtibia 26.249479117065725
rfoot -18.52453375791444 -5.444386682146547
rtoes 5.330805643772778
lowerback 9.971278324461563 2.0598967380909285 7.4690613287003975
upperback 0.2407668025903371 3.8036094935573184 2.387528931333216
thorax -5.0735197249297395 1.7477701845946112 -1.9473277639120607
lowerneck -16.884159554685844 -2.8441153966538275 -1.542849185107891
upperneck 20.466303450397675 -3.6903749140356785 0.8971995844736855
head 9.261504535695556 -1.7445539856611978 0.10256082606292462
lclavicle -1.953240616870781e-15 9.067692338940727e-16
lhumerus -34.94580146005913 2.242287409544144 84.29603212030412
lradius 24.408542288693287
lwrist 4.304756836555411
lhand -27.967369302171157 22.315903642653538
lfingers 7.12502
lthumb -1.2966443139905541 52.40323795251841
rclavicle -1.953240617100838e-15 9.067692336827353e-16
rhumerus -24.474445031410664 -10.702865998387756 -81.47635740430398
rradius 28.414865679970255
rwrist 1.7776207433231717
rhand -18.10645599824554 23.233394594344368
rfingers 7.12502
rthumb 8.199050191232086 -6.406517939432939
48
root -0.01760852366112614 17.986911303003666 7.693945746527889 -1.2678536512733543 -3.994849858925028 -8.454148662193452
lfemur -28.0265816473102 -1.3010158737769855 -10.087761764355886
ltibia 31.336476710253855
lfoot -3.8249096184612066 3.1466525943449355
ltoes -10.366128588675345
rfemur 5.049327045946299 6.294769435805388 35.34755734179652
rtibia 23.784771939494725
rfoot -18.382510149947226 -5.986460522847058
rtoes 4.117222716149973
lowerback 9.624675685640973 2.3532863612854107 8.137175286611598
upperback 0.19483860998355676 4.206006524291309 2.461128719246484
thorax -5.003458789857693 1.930160867409446 -2.250947614443303
lowerneck -16.914427380612537 -2.852294806433889 -1.4631287100954502
upperneck 20.272867540152305 -3.7248553208738855 0.9523035838331768
head 9.194758736361942 -1.7479727265164309 0.10689060576672613
lclavicle -1.9532406168767625e-15 9.067692338889445e-16
lhumerus -35.59776607974051 3.649726417232041 83.7657657973185
lradius 23.06645809757307
lwrist 3.852695036020624
lhand -28.22026382845981 21.819000999798497
lfingers 7.12502
lthumb -1.4793077417094196 51.99120916869146
rclavicle -1.9532406171054067e-15 9.067692336789998e-16
rhumerus -24.00813058455025 -10.837365138305799 -81.46625237765075
rradius 29.009639572039795
rwrist 1.414513999138613
rhand -18.146863243486443 23.68230002543825
rfingers 7.12502
rthumb 8.137919580788857 -6.081400243149466
